HIERARCHY
ROOT HipCenter
{
    OFFSET 0.0 0.0 -0.0
    CHANNELS 6 Xposition Yposition Zposition Zrotation Xrotation Yrotation
    JOINT Spine
    {
        OFFSET 0.0 0.1025826707482338 0.0
        CHANNELS 3 Zrotation Xrotation Yrotation
        JOINT ShoulderCenter
        {
            OFFSET 0.0 0.2981433570384979 0.0
            CHANNELS 3 Zrotation Xrotation Yrotation
            JOINT LeftShoulder
            {
                OFFSET 0.18971291184425354 0.0 0.0
                CHANNELS 3 Zrotation Xrotation Yrotation
                JOINT LeftElbow
                {
                    OFFSET 0.21993669867515564 0.0 0.0
                    CHANNELS 3 Zrotation Xrotation Yrotation
                    JOINT LeftWrist
                    {
                        OFFSET 0.26976990699768066 0.0 0.0
                        CHANNELS 3 Zrotation Xrotation Yrotation
                        JOINT LeftHand
                        {
                            OFFSET 0.040176793932914734 0.0 0.0
                            CHANNELS 3 Zrotation Xrotation Yrotation
                            End Site
                            {
                                OFFSET 0.016070719808340073 0.0 0.0
                            }
                        }
                    }
                }
            }
            JOINT RightShoulder
            {
                OFFSET -0.18971291184425354 0.0 0.0
                CHANNELS 3 Zrotation Xrotation Yrotation
                JOINT RightElbow
                {
                    OFFSET -0.21993669867515564 0.0 0.0
                    CHANNELS 3 Zrotation Xrotation Yrotation
                    JOINT RightWrist
                    {
                        OFFSET -0.26976990699768066 0.0 0.0
                        CHANNELS 3 Zrotation Xrotation Yrotation
                        JOINT RightHand
                        {
                            OFFSET -0.040176793932914734 0.0 0.0
                            CHANNELS 3 Zrotation Xrotation Yrotation
                            End Site
                            {
                                OFFSET -0.016070719808340073 0.0 0.0
                            }
                        }
                    }
                }
            }
            End Site
            {
                OFFSET 0.0 0.11925733834505081 0.0
            }
        }
    }
    JOINT LeftHip
    {
        OFFSET 0.1268492341041565 0.0 0.0
        CHANNELS 3 Zrotation Xrotation Yrotation
        JOINT LeftKnee
        {
            OFFSET 0.0 -0.38004305958747864 0.0
            CHANNELS 3 Zrotation Xrotation Yrotation
            JOINT LeftAnkle
            {
                OFFSET 0.0 -0.37753474712371826 0.0
                CHANNELS 3 Zrotation Xrotation Yrotation
                JOINT LeftFoot
                {
                    OFFSET 0.0 -0.09020087122917175 0.0
                    CHANNELS 3 Zrotation Xrotation Yrotation
                    End Site
                    {
                        OFFSET 0.0 0.0 0.03608035296201706
                    }
                }
            }
        }
    }
    JOINT RightHip
    {
        OFFSET -0.1268492341041565 0.0 0.0
        CHANNELS 3 Zrotation Xrotation Yrotation
        JOINT RightKnee
        {
            OFFSET 0.0 -0.38004305958747864 0.0
            CHANNELS 3 Zrotation Xrotation Yrotation
            JOINT RightAnkle
            {
                OFFSET 0.0 -0.37753474712371826 0.0
                CHANNELS 3 Zrotation Xrotation Yrotation
                JOINT RightFoot
                {
                    OFFSET 0.0 -0.09020087122917175 0.0
                    CHANNELS 3 Zrotation Xrotation Yrotation
                    End Site
                    {
                        OFFSET 0.0 0.0 0.03608035296201706
                    }
                }
            }
        }
    }
}
MOTION
Frames: 7
Frame Time: 0.03333333333333333
0.8640000224113464 -0.18299999833106995 0.006000000052154064 -44.604853474704235 1.6759325988907086 91.24146874381617 0.2671446858860675 9.205432203184085 0.05262226248207089 -7.86878611580845e-08 -2.0355605873595616e-06 -2.534221746622954 -121.75027242981308 28.207734982744658 64.01917691547767 1.6268496309493874e-07 8.41396521170625e-06 9.502042963054748 8.529066684125635e-07 -22.165428287993585 45.81738272064343 6.3611093629270335e-15 6.361109362927033e-15 -1.2722218725854067e-14 144.74545010171184 34.08328006158348 -68.60781122754612 -8.764919801630776e-07 -1.0356604286968717e-05 -14.021750740221393 -1.435934916841502e-06 -20.770250069924277 -32.05075047096514 8.827812596100317e-32 -1.5902773407317584e-15 6.3611093629270335e-15 -177.55714289880527 -85.1681143301939 -131.74534393968307 58.68855940448127 41.01743385815505 -80.18331005999018 16.386451595674014 -78.97512396667877 64.53826116678694 -7.95138670365879e-16 -3.1805546814635168e-15 4.770832022195275e-15 -125.22649601198665 -86.8553483491809 -170.2035195616415 -56.87832754255663 38.63447944293003 81.98722409680667 -128.88772101271408 -76.85324002141547 -179.97934409111326 -6.3611093629270335e-15 8.827812596100317e-32 -1.5902773407317584e-15
0.8579999804496765 -0.25200000405311584 0.003000000026077032 -39.876851289658724 1.113028055341624 90.36633022281933 0.0747186309823576 5.257170691288516 0.033042693843208404 5.908002955553682e-07 5.934924933448806e-07 -2.0300715740861937 -79.17575196699917 -8.78123073777674 8.204314554017085 -4.127777309628343e-07 -1.6237032911997193e-06 14.618211895754287 179.99999800028485 16.35129382217582 -56.55442314332637 -3.1805546814635176e-15 1.7655625192200634e-31 -6.361109362927035e-15 -101.80104303963385 44.40996745982824 -159.75124819905471 -8.025054894478479e-07 -7.2147652518586e-06 -18.281592890283594 4.254442412777114e-06 -45.04528624497205 -42.23862651435372 -3.1805546814635168e-15 3.1805546814635168e-15 8.827812596100317e-32 -174.73121507086336 -82.70424631603046 -128.0513766004147 74.76535493781715 44.238847874395184 -100.11735481778491 45.902693969216 -61.28432780358974 91.38527247539007 -1.5902773407317584e-15 0.0 0.0 -176.59603149629535 -83.41669010141216 137.1242352000634 -76.26004755839405 42.879383275998144 103.48760679077341 -112.56896909044247 -80.366883083547 -159.16181313110388 -6.361109362927032e-15 -1.7655625192200634e-31 3.180554681463516e-15
0.8289999961853027 -0.29600000381469727 -0.004999999888241291 -22.83366698116482 1.6670814240730307 91.86376478540357 -1.3866397994335202 2.750301846849678 0.02300546090230423 3.23979437088983e-07 2.2799559012868084e-07 -0.896195521691238 79.7084033460859 3.3694475390223046 -133.3071235671646 -1.2697897368122298e-06 -8.221726099730714e-07 41.52365544166648 2.9887988852277436e-06 64.83534408245997 68.05708958208065 -3.1805546814635176e-15 0.0 0.0 -64.32684212272491 17.22160573011297 131.7673153040786 3.5752569574922044e-07 4.026056069668506e-06 -45.366821170933406 -3.2962160427029686e-06 48.64558132110039 -51.87340144749557 1.5902773407317584e-15 2.2069531490250793e-32 1.5902773407317584e-15 -41.80424511595719 -84.35330582581913 0.570672801831073 86.92811208095702 50.999008930916006 -122.81862192689265 62.31941060858382 -46.23862461848305 99.04288607427961 1.5902773407317584e-15 2.2069531490250793e-32 1.5902773407317584e-15 -0.5091606943205256 -82.71375713341871 -38.47214312675357 -85.12198281440604 50.557980109896185 124.75831557765368 -73.108151070871 -68.8606369613964 -108.31893659842304 6.3611093629270335e-15 2.2069531490250793e-31 3.975693351829396e-15
0.7990000247955322 -0.3050000071525574 -0.012000000104308128 -9.554266378862005 -1.1186898143659092 93.61739539747948 0.17185292366478933 -2.8495026173334583 0.05488433634532515 -1.7331527683821767e-07 -4.399897771964392e-07 -3.55144472059353 125.70643521767059 0.6766326884275996 -86.55760475997678 1.4321333524029758e-06 3.0050335647703164e-08 40.177880659899614 -179.99999842085342 -76.23544621667307 -138.87415435034887 6.361109362927033e-15 7.951386703658788e-16 -4.373262687012335e-15 -104.32247701701584 1.0434154960188227 80.50856359819902 -2.4594969936659626e-06 -5.773687356246009e-06 -29.73234776104537 1.1945640171429048e-06 -0.7194230350205517 -25.68017019513453 3.1805546814635164e-15 -6.3611093629270335e-15 -6.3611093629270335e-15 -10.419256575517734 -73.17424509690943 26.057915965211258 87.04284394333101 56.95371495776887 -129.12587943971891 70.52491463775274 -38.781692666430644 101.56495100909207 0.0 0.0 -6.361109362927035e-15 -2.9245984171507806 -69.72602290157471 -34.41429144473558 -84.9482064086242 59.988139933942435 129.8525159254518 -77.91092211907666 -61.457508790677814 -103.40582788195844 0.0 0.0 0.0
0.8180000185966492 -0.17399999499320984 -0.03099999949336052 10.653899922331687 1.672042759846956 91.59724630264954 -3.850123455379619 -2.3907931753104865 -0.05812321761668944 -1.131399090368379e-06 -7.369894698629665e-07 3.807080027278182 134.15183325462758 41.01894236383756 -74.19677402712179 -3.862762841454285e-06 1.4693148646952607e-06 54.901088734160936 179.999999530015 -58.40377607069474 -138.96623924580388 0.0 0.0 0.0 -106.57481490432605 37.354323846853525 54.435676863389375 -4.41581689993481e-06 1.2058134740402679e-06 -53.4148654395267 -179.99999813061856 -6.337737588550832 137.2535383486209 -1.5902773407317584e-15 -4.4139062980501586e-32 3.1805546814635168e-15 -0.77734935088252 -34.008316315076236 -1.761951114590938 -18.310575310643337 65.79233761481935 -32.10850324861818 75.97989476456937 -38.23063703230172 89.06179142639753 -3.1805546814635168e-15 3.1805546814635168e-15 1.5902773407317584e-15 -7.883077832567766 -29.567739822882036 5.780729531484611 23.699320553771795 59.81577144405534 27.099158889266743 -94.6706211412516 -37.63272966397072 -120.12638440387478 0.0 0.0 0.0
0.8209999799728394 0.023000000044703484 -0.052000001072883606 39.447028422837874 1.1199733650500816 90.50100177673204 -2.083649843149999 -1.2185969314215959 -0.019457888550298192 1.623602270066705e-07 3.835317107853782e-07 1.2944650968816156 167.24849583735943 65.91859007479506 -131.5437284136043 -2.2190112013511577e-07 8.609581739160734e-07 60.52090147329678 179.99999692992634 -73.28868126344787 -144.20329992493146 1.7655625192200634e-31 6.3611093629270335e-15 -3.1805546814635168e-15 -145.08520680955178 66.01218154538468 107.1931386401198 5.2875449423318755e-06 -4.6099570507954433e-07 -60.445681671787675 179.9999989369011 -75.69383827734123 134.46951587162312 1.1927080055488188e-15 8.276074308844047e-33 7.951386703658792e-16 1.6071326121988634 4.995722783320265 -35.82653856516274 -35.91066771156788 34.85699479754159 -4.116333046526896 47.765504054878804 -27.16889214122698 31.818113945456876 -3.1805546814635168e-15 3.1805546814635168e-15 -1.5902773407317584e-15 -11.603610465108835 7.077622812063335 41.60460727793612 38.92749457976454 29.898879425776858 4.021454600229898 -101.259391256801 10.691477727975702 150.58448542182123 0.0 0.0 0.0
0.7279999852180481 0.1080000028014183 -0.07100000232458115 48.551720283035735 1.672757935206855 89.2927528726691 -3.2439493595982767 3.240509424725011 0.043592210074479346 -1.6957079868603327e-06 -4.968360206468944e-07 2.723014291383414 -176.60798710348703 58.95637444538664 161.96679726279484 -1.2905099961746802e-06 1.3699137461190455e-06 64.53168332639329 -179.9999944644313 -63.564983487286725 -148.3157998965305 0.0 0.0 1.5902773407317584e-15 174.80267728774342 63.01656261210424 -169.25294235507508 1.6533543771578335e-06 4.17016961241576e-06 -65.27070464723339 179.99999646991589 -60.60537106064215 133.0858316124561 3.1805546814635168e-15 7.951386703658792e-16 3.1805546814635168e-15 1.5027025885563956 -22.172120864004132 -13.098228157994452 -64.68760987306797 72.5023033260769 10.492479042349302 38.615327062492874 -54.00595431970413 29.83369933974044 0.0 0.0 0.0 -13.534929555180385 -21.891134589822954 11.798811162154905 82.9446823463154 72.75806277872007 -23.68394118965184 -13.354260708697007 -3.0255352932940314 -0.33108548644559654 3.975693351829396e-16 9.310583597449553e-33 2.683593012484842e-15
